<?xml version="1.0" encoding="UTF-8" standalone="no"?>
<svg
   xmlns:dc="http://purl.org/dc/elements/1.1/"
   xmlns:cc="http://creativecommons.org/ns#"
   xmlns:rdf="http://www.w3.org/1999/02/22-rdf-syntax-ns#"
   xmlns:svg="http://www.w3.org/2000/svg"
   xmlns="http://www.w3.org/2000/svg"
   xmlns:xlink="http://www.w3.org/1999/xlink"
   xmlns:sodipodi="http://sodipodi.sourceforge.net/DTD/sodipodi-0.dtd"
   xmlns:inkscape="http://www.inkscape.org/namespaces/inkscape"
   id="master-artboard"
   viewBox="0 0 2800 2800"
   version="1.1"
   x="0px"
   y="0px"
   width="2800px"
   height="2800px"
   enable-background="new 0 0 2800 2800"
   sodipodi:docname="wwi.jpg.svg"
   inkscape:version="0.92.3 (2405546, 2018-03-11)">
  <metadata
     id="metadata112">
    <rdf:RDF>
      <cc:Work
         rdf:about="">
        <dc:format>image/svg+xml</dc:format>
        <dc:type
           rdf:resource="http://purl.org/dc/dcmitype/StillImage" />
        <dc:title></dc:title>
      </cc:Work>
    </rdf:RDF>
  </metadata>
  <defs
     id="defs110">
    <linearGradient
       inkscape:collect="always"
       xlink:href="#SVGID_8_"
       id="linearGradient927"
       x1="771.09998"
       y1="1111.5"
       x2="2013.5028"
       y2="1111.5"
       gradientUnits="userSpaceOnUse" />
    <linearGradient
       inkscape:collect="always"
       xlink:href="#SVGID_8_"
       id="linearGradient935"
       x1="771.09998"
       y1="1688.5"
       x2="2013.5028"
       y2="1688.5"
       gradientUnits="userSpaceOnUse" />
    <linearGradient
       inkscape:collect="always"
       xlink:href="#SVGID_10_"
       id="linearGradient937"
       x1="771"
       y1="1015.35"
       x2="1725.0002"
       y2="1015.35"
       gradientUnits="userSpaceOnUse" />
    <linearGradient
       inkscape:collect="always"
       xlink:href="#SVGID_3_"
       id="linearGradient961"
       x1="771.09998"
       y1="919.25"
       x2="1917.3"
       y2="919.25"
       gradientUnits="userSpaceOnUse" />
    <linearGradient
       inkscape:collect="always"
       xlink:href="#SVGID_3_"
       id="linearGradient965"
       x1="771"
       y1="1015.35"
       x2="1917.3007"
       y2="1015.35"
       gradientUnits="userSpaceOnUse" />
    <radialGradient
       inkscape:collect="always"
       xlink:href="#SVGID_11_"
       id="radialGradient981"
       cx="1476.1102"
       cy="828.08575"
       fx="1476.1102"
       fy="828.08575"
       r="748.05505"
       gradientTransform="matrix(1,0,0,0.40116278,0,495.88857)"
       gradientUnits="userSpaceOnUse" />
    <radialGradient
       inkscape:collect="always"
       xlink:href="#SVGID_4_"
       id="radialGradient985"
       cx="1344.1503"
       cy="1784.65"
       fx="1344.1503"
       fy="1784.65"
       r="573.15033"
       gradientTransform="matrix(1,0,0,0.67111536,0,586.94396)"
       gradientUnits="userSpaceOnUse" />
    <linearGradient
       inkscape:collect="always"
       xlink:href="#SVGID_3_"
       id="linearGradient111"
       gradientUnits="userSpaceOnUse"
       gradientTransform="matrix(1,0,0,-1,1.691314e-4,3191.4136)"
       x1="771.0437"
       y1="1310.5842"
       x2="1917.347"
       y2="1310.5842" />
    <linearGradient
       inkscape:collect="always"
       xlink:href="#SVGID_4_"
       id="linearGradient113"
       gradientUnits="userSpaceOnUse"
       gradientTransform="matrix(1,0,0,-1,1.691314e-4,3191.4136)"
       x1="1532.6832"
       y1="1599.0814"
       x2="1532.7461"
       y2="1599.0814" />
    <linearGradient
       inkscape:collect="always"
       xlink:href="#SVGID_9_"
       id="linearGradient115"
       gradientUnits="userSpaceOnUse"
       x1="1532.6832"
       y1="1207.6678"
       x2="1532.7461"
       y2="1207.6678" />
  </defs>
  <sodipodi:namedview
     pagecolor="#ffffff"
     bordercolor="#666666"
     borderopacity="1"
     objecttolerance="10"
     gridtolerance="10"
     guidetolerance="10"
     inkscape:pageopacity="0"
     inkscape:pageshadow="2"
     inkscape:window-width="1366"
     inkscape:window-height="716"
     id="namedview108"
     showgrid="false"
     inkscape:zoom="0.16"
     inkscape:cx="163.2844"
     inkscape:cy="1537.344"
     inkscape:window-x="0"
     inkscape:window-y="0"
     inkscape:window-maximized="1"
     inkscape:current-layer="master-artboard" />
  <radialGradient
     id="SVGID_2_"
     cx="1344.1953"
     cy="2256.8184"
     r="452.7326"
     gradientTransform="matrix(2.0917 0 0 0.3721 -1467.4799 1539.4679)"
     gradientUnits="userSpaceOnUse">
    <stop
       offset="0"
       style="stop-color:#000000"
       id="stop2" />
    <stop
       offset="1"
       style="stop-color:#000000;stop-opacity:0"
       id="stop4" />
  </radialGradient>
  <linearGradient
     id="SVGID_3_"
     gradientUnits="userSpaceOnUse"
     x1="771.0437"
     y1="1310.5842"
     x2="1917.347"
     y2="1310.5842"
     gradientTransform="matrix(1 0 0 -1 1.691314e-04 3191.4136)">
    <stop
       offset="0"
       style="stop-color:#0084FF"
       id="stop7" />
    <stop
       offset="0.1921"
       style="stop-color:#0280F6"
       id="stop9" />
    <stop
       offset="0.5054"
       style="stop-color:#0874DE"
       id="stop11" />
    <stop
       offset="0.8987"
       style="stop-color:#1261B6"
       id="stop13" />
    <stop
       offset="1"
       style="stop-color:#155BAB"
       id="stop15" />
  </linearGradient>
  <linearGradient
     id="SVGID_4_"
     gradientUnits="userSpaceOnUse"
     x1="1532.6832"
     y1="1599.0814"
     x2="1532.7461"
     y2="1599.0814"
     gradientTransform="matrix(1 0 0 -1 1.691314e-04 3191.4136)">
    <stop
       offset="0"
       style="stop-color:#0084FF"
       id="stop20" />
    <stop
       offset="1"
       style="stop-color:#155BAB"
       id="stop22" />
  </linearGradient>
  <linearGradient
     id="SVGID_5_"
     gradientUnits="userSpaceOnUse"
     x1="771.0439"
     y1="1406.7496"
     x2="1725.0151"
     y2="1406.7496"
     gradientTransform="matrix(1,0,0,-1,1.691314e-4,3191.4136)">
    <stop
       offset="0"
       style="stop-color:#0084FF"
       id="stop27" />
    <stop
       offset="1"
       style="stop-color:#155BAB"
       id="stop29" />
  </linearGradient>
  <linearGradient
     id="SVGID_6_"
     gradientUnits="userSpaceOnUse"
     x1="1392.2784"
     y1="2169.3269"
     x2="1392.2784"
     y2="1207.6683"
     xlink:href="#SVGID_8_">
    <stop
       offset="0"
       style="stop-color:#0084FF"
       id="stop34" />
    <stop
       offset="1"
       style="stop-color: rgb(12, 110, 208);"
       id="stop36" />
  </linearGradient>
  <linearGradient
     id="SVGID_7_"
     gradientUnits="userSpaceOnUse"
     x1="1344.1956"
     y1="2169.3274"
     x2="1344.1956"
     y2="1400.0005">
    <stop
       offset="0"
       style="stop-color:#0084FF"
       id="stop41" />
    <stop
       offset="1"
       style="stop-color:#4ECC69"
       id="stop43" />
  </linearGradient>
  <linearGradient
     id="SVGID_8_"
     gradientUnits="userSpaceOnUse"
     x1="771.0437"
     y1="919.1706"
     x2="1917.347"
     y2="919.1706">
    <stop
       offset="0"
       style="stop-color: rgb(0, 132, 255);"
       id="stop48" />
    <stop
       offset="9.306120e-02"
       style="stop-color: rgb(2, 128, 246);"
       id="stop50" />
    <stop
       offset="0.2449"
       style="stop-color: rgb(2, 128, 246);"
       id="stop52" />
    <stop
       offset="0.4367"
       style="stop-color: rgb(8, 115, 222);"
       id="stop54" />
    <stop
       offset="0.661"
       style="stop-color: rgb(18, 97, 182);"
       id="stop56" />
    <stop
       offset="0.9098"
       style="stop-color: rgb(18, 97, 182);"
       id="stop58" />
    <stop
       offset="1"
       style="stop-color:#ED1E79"
       id="stop60" />
  </linearGradient>
  <linearGradient
     id="SVGID_9_"
     gradientUnits="userSpaceOnUse"
     x1="1532.6832"
     y1="1207.6678"
     x2="1532.7461"
     y2="1207.6678">
    <stop
       offset="0"
       style="stop-color:#FCFF4C"
       id="stop65" />
    <stop
       offset="1"
       style="stop-color:#ED1E79"
       id="stop67" />
  </linearGradient>
  <linearGradient
     id="SVGID_10_"
     gradientUnits="userSpaceOnUse"
     x1="771.04388"
     y1="1015.3361"
     x2="1725.0151"
     y2="1015.3361"
     spreadMethod="pad">
    <stop
       offset="0"
       style="stop-color: rgb(0, 132, 255);"
       id="stop72" />
    <stop
       offset="1"
       style="stop-color: rgb(18, 97, 182);"
       id="stop74" />
  </linearGradient>
  <linearGradient
     id="SVGID_11_"
     gradientUnits="userSpaceOnUse"
     x1="771.04388"
     y1="1111.5023"
     x2="2013.5127"
     y2="1111.5023"
     xlink:href="#SVGID_9_">
    <stop
       offset="0"
       style="stop-color: rgb(0, 131, 253);"
       id="stop79" />
    <stop
       offset="0.1124"
       style="stop-color: rgb(6, 121, 229);"
       id="stop81" />
    <stop
       offset="0.2958"
       style="stop-color: rgb(5, 124, 236);"
       id="stop83" />
    <stop
       offset="0.5274"
       style="stop-color: rgb(11, 110, 209);"
       id="stop85" />
    <stop
       offset="0.7953"
       style="stop-color: rgb(0, 132, 255);"
       id="stop87" />
    <stop
       offset="1"
       style="stop-color: rgb(21, 91, 171);"
       id="stop89" />
  </linearGradient>
  <linearGradient
     id="SVGID_12_"
     gradientUnits="userSpaceOnUse"
     x1="771.0437"
     y1="219.0211"
     x2="1917.3467"
     y2="219.0211"
     gradientTransform="matrix(1,0,0,-1,1.352737e-4,1234.3572)"
     xlink:href="#SVGID_11_">
    <stop
       offset="0"
       style="stop-color: rgb(2, 127, 244);"
       id="stop94" />
    <stop
       offset="1"
       style="stop-color: rgb(9, 114, 220);"
       id="stop96" />
  </linearGradient>
  <g
     id="g109"
     transform="matrix(1.6237901,0,0,1.607766,-1089.394,-1231.3449)"
     inkscape:export-xdpi="96"
     inkscape:export-ydpi="96">
    <path
       id="path18"
       transform="rotate(89.911377,1297.4346,1635.7753)"
       d="m 1532.7,1592.3 h 193.1 c 105.3,0 191,85 191.5,190.2 0,0.7 0,1.4 0,2.1 0,210.8 -169.5,382 -379.7,384.6 -1.3,0 -2.5,0 -3.8,0 -0.4,0 -0.7,0 -1.1,0 v 0 c 0,0 0,0 -0.1,0 H 820.2 c -27.1,0 -49.1,-22 -49.1,-49.1 V 1977 c 0,-106.2 86.1,-192.3 192.3,-192.3 h 568.1 c 53,0 97,-42.4 97.4,-95.4 0.3,-53.5 -42.9,-97 -96.2,-97 z"
       style="fill:url(#linearGradient111)"
       inkscape:connector-curvature="0" />
    <path
       id="path25"
       d="m 1532.7,1592.3 c 0,0 0,0 0,0 0,0 0,0 0,0 z"
       style="fill:url(#linearGradient113)"
       inkscape:connector-curvature="0" />
    <path
       id="path32"
       transform="rotate(89.911377,1297.4346,1635.7753)"
       d="m 1725,1784.3 c -0.2,-106 -86.2,-192 -192.3,-192 53.3,0 96.5,43.5 96.1,96.9 -0.4,53 -44.4,95.4 -97.4,95.4 h -568 c -106.2,0 -192.3,86.1 -192.3,192.3 v 0 h 760 c 105.9,0.1 194.1,-86.6 193.9,-192.6 z"
       style="fill:url(#SVGID_5_)"
       inkscape:connector-curvature="0" />
    <path
       style="fill:url(#linearGradient935);fill-opacity:1"
       id="path39"
       transform="rotate(89.911377,1297.4346,1635.7753)"
       d="M 1530.1,1207.7 H 820.2 c -27.1,0 -49.1,22 -49.1,49.1 v 286.4 c 0,27.1 22,49.1 49.1,49.1 h 712.5 c 0,0 0.1,0 0.1,0 159.3,0.1 288.4,129.2 288.4,288.5 0,159.3 -129.2,288.5 -288.5,288.5 v 0 c 266.1,0 481.7,-216.1 480.8,-482.4 -0.8,-265.3 -218,-479.2 -483.4,-479.2 z"
       inkscape:connector-curvature="0" />
    <path
       id="path46"
       style="fill:url(#radialGradient985);fill-opacity:1"
       transform="rotate(89.911377,1297.4346,1635.7753)"
       d="M 1530.2,1400 H 771 v 143.2 c 0,27.1 22,49.1 49.1,49.1 h 712.5 c 0,0 0.1,0 0.1,0 159.3,0.1 288.4,129.2 288.4,288.5 0,159.3 -129.2,288.5 -288.5,288.5 v 0 c 1.7,0 3.3,0 5,0 209.9,-2.7 379.3,-173.5 379.7,-384 0.4,-211.9 -175.2,-385.3 -387.1,-385.3 z"
       inkscape:connector-curvature="0" />
    <path
       style="fill:url(#linearGradient961);fill-opacity:1"
       id="path63"
       transform="rotate(89.911377,1297.4346,1635.7753)"
       d="m 1532.7,1207.7 h 193.1 c 105.3,0 191,-85 191.5,-190.2 0,-0.7 0,-1.4 0,-2.1 0,-210.8 -169.5,-382 -379.7,-384.6 -1.3,0 -2.5,0 -3.8,0 -0.4,0 -0.7,0 -1.1,0 v 0 c 0,0 0,0 -0.1,0 H 820.2 c -27.1,0 -49.1,22 -49.1,49.1 V 823 c 0,106.2 86.1,192.3 192.3,192.3 h 568.1 c 53,0 97,42.4 97.4,95.4 0.3,53.5 -42.9,97 -96.2,97 z"
       inkscape:connector-curvature="0" />
    <path
       id="path70"
       d="m 1532.7,1207.7 c 0,0 0,0 0,0 0,0 0,0 0,0 z"
       style="fill:url(#linearGradient115)"
       inkscape:connector-curvature="0" />
    <path
       style="fill:url(#linearGradient937);fill-opacity:1"
       id="path77"
       transform="rotate(89.911377,1297.4346,1635.7753)"
       d="m 1725,1015.7 c -0.2,106 -86.2,192 -192.3,192 53.3,0 96.5,-43.5 96.1,-96.9 -0.4,-53 -44.4,-95.4 -97.4,-95.4 h -568 C 857.2,1015.3 771,929.2 771,823 v 0 h 760 c 106,0 194.2,86.7 194,192.7 z"
       inkscape:connector-curvature="0" />
    <path
       style="fill:url(#linearGradient927);fill-opacity:1"
       id="path92"
       transform="rotate(89.911377,1297.4346,1635.7753)"
       d="M 1530.1,1592.3 H 820.2 c -27.1,0 -49.1,-22 -49.1,-49.1 v -286.4 c 0,-27.1 22,-49.1 49.1,-49.1 h 712.5 c 0,0 0.1,0 0.1,0 159.3,-0.1 288.4,-129.2 288.4,-288.5 0,-159.3 -129.2,-288.5 -288.5,-288.5 v 0 c 266.1,0 481.7,216.1 480.8,482.4 -0.8,265.3 -218,479.2 -483.4,479.2 z"
       inkscape:connector-curvature="0" />
    <path
       style="fill:url(#linearGradient965);fill-opacity:1"
       id="path99"
       transform="rotate(89.911377,1297.4346,1635.7753)"
       d="M 1530.2,1400 H 771 v -143.2 c 0,-27.1 22,-49.1 49.1,-49.1 h 712.5 c 0,0 0.1,0 0.1,0 159.3,-0.1 288.4,-129.2 288.4,-288.5 0,-159.3 -129.2,-288.5 -288.5,-288.5 v 0 c 1.7,0 3.3,0 5,0 209.9,2.7 379.3,173.5 379.7,384 0.4,211.9 -175.2,385.3 -387.1,385.3 z"
       inkscape:connector-curvature="0" />
    <path
       id="path101"
       style="fill-opacity:1;stroke:#000000;stroke-width:0;stroke-opacity:1;paint-order:fill"
       d="M 2167.6262,1867.5344"
       inkscape:connector-curvature="0" />
    <path
       id="path103"
       transform="rotate(89.911377,1297.4346,1635.7753)"
       style="fill-opacity:1;stroke:#000000;stroke-width:0;stroke-opacity:1;paint-order:fill"
       d="m 1210.8116,1989.3108 h -13.0474"
       inkscape:connector-curvature="0" />
  </g>
  <path
     d="M 2224.165283203125 1128.1776123046875 L 728.0551147460938 527.993896484375"
     style="fill-opacity:1;stroke:rgb(0, 0, 0);stroke-opacity:1;stroke-width:0;paint-order:fill;fill:url(#radialGradient981)"
     id="path105"
     transform="matrix(0.0015467549674212933, 0.9999987483024596, -0.9999987483024596, 0.0015467549674212933, 2931.2011095009157, 335.8121555242662)" />
</svg>
